<svg xmlns="http://www.w3.org/2000/svg" xmlns:xlink="http://www.w3.org/1999/xlink" viewBox="0 0 500 250" enable-background="new 0 0 500 250"><g><defs><path id="a" d="M280.066 157.605h46.877v41.4h-46.877z"/></defs><clipPath id="b"><use xlink:href="#a" overflow="visible"/></clipPath><path clip-path="url(#b)" fill="#EF4F30" d="M302.566 193.392s21-12.73 21-24.774c0-12.047-18.633-12.975-21-.927-2.367-12.047-21-11.12-21 1.855 0 12.972 21 23.847 21 23.847"/><path clip-path="url(#b)" stroke="#0A374E" stroke-width="3" stroke-linecap="round" stroke-linejoin="round" stroke-miterlimit="10" d="M302.566 193.392s21-12.73 21-24.774c0-12.047-18.633-12.975-21-.927-2.367-12.047-21-11.12-21 1.855 0 12.972 21 23.847 21 23.847z" fill="none"/><path clip-path="url(#b)" stroke="#F69473" stroke-width="3" stroke-linecap="round" stroke-linejoin="round" stroke-miterlimit="10" d="M286.736 170.882c0-3.634 2.945-6.58 6.58-6.58" fill="none"/><path clip-path="url(#b)" fill="#FFCB06" d="M308.336 197.506c-.908 0-1.646-.74-1.646-1.646V180.4c0-.91.738-1.647 1.646-1.647h15.46c.91 0 1.647.738 1.647 1.647v15.46c0 .907-.738 1.646-1.646 1.646h-15.46z"/><path clip-path="url(#b)" fill="#0A374E" d="M323.797 180.252c.08 0 .146.065.146.146v15.46c0 .08-.066.148-.146.148h-15.46c-.08 0-.147-.066-.147-.148v-15.46c0-.08.066-.146.146-.146h15.46m0-3h-15.46c-1.734 0-3.146 1.41-3.146 3.146v15.46c0 1.735 1.412 3.148 3.146 3.148h15.46c1.735 0 3.147-1.412 3.147-3.148v-15.46c0-1.735-1.412-3.146-3.146-3.146M322.53 192.17c-.112-.704-.57-1.296-1.935-1.85-.473-.216-1-.372-1.158-.73-.055-.21-.062-.326-.027-.452.102-.41.592-.538.98-.422.25.084.485.277.628.584.668-.432.666-.43 1.13-.726-.17-.265-.26-.387-.37-.5-.402-.448-.95-.68-1.822-.66l-.457.06c-.44.108-.853.338-1.097.644-.732.83-.523 2.284.367 2.882.877.66 2.166.81 2.33 1.424.16.755-.553.998-1.264.91-.523-.107-.814-.373-1.13-.857-.577.335-.577.335-1.173.678.14.308.29.448.525.715 1.12 1.136 3.924 1.08 4.426-.64.022-.058.157-.452.047-1.06m-5.788-4.666h-1.447c0 1.25-.006 2.49-.006 3.74 0 .794.04 1.523-.09 1.746-.21.44-.76.385-1.01.3-.253-.125-.382-.303-.532-.554-.04-.072-.072-.128-.082-.132-.393.238-.783.48-1.176.72.195.4.482.75.852.975.55.33 1.293.432 2.066.255.504-.148.94-.452 1.168-.914.328-.606.258-1.342.256-2.154.006-1.326 0-2.652 0-3.982"/><path fill="#FFCC03" d="M168.993 156.448c0 3.22-2.61 5.828-5.828 5.828-3.218 0-5.83-2.608-5.83-5.828h-8.742v40.857h29.143v-40.857h-8.743z"/><path stroke="#0A374E" stroke-width="3" stroke-linecap="round" stroke-linejoin="round" stroke-miterlimit="10" d="M168.993 156.448c0 3.22-2.61 5.828-5.828 5.828-3.218 0-5.83-2.608-5.83-5.828h-8.742v40.857h29.143v-40.857h-8.743z" fill="none"/><g opacity=".2"><defs><path id="c" d="M147.698 190.747h30.038v4.167h-30.038z"/></defs><clipPath id="d"><use xlink:href="#c" overflow="visible"/></clipPath><path clip-path="url(#d)" fill="#4C3F17" d="M177.736 190.747l-30.038 4.167h30.038z"/></g><path fill="#FFCB06" d="M155.5 189.5c-.633 0-1.147-.515-1.147-1.145v-15.46c0-.633.514-1.147 1.147-1.147h15.46c.632 0 1.145.515 1.145 1.147v15.46c0 .63-.514 1.146-1.145 1.146H155.5z"/><path fill="#0A374E" d="M170.96 172.747c.08 0 .146.066.146.146v15.46c0 .082-.065.147-.146.147H155.5c-.08 0-.148-.066-.148-.146v-15.46c0-.08.066-.147.148-.147h15.46m0-2H155.5c-1.184 0-2.148.963-2.148 2.146v15.46c0 1.185.963 2.147 2.148 2.147h15.46c1.184 0 2.146-.963 2.146-2.146v-15.46c0-1.184-.962-2.147-2.146-2.147M169.694 184.667c-.113-.705-.573-1.298-1.936-1.85-.473-.218-1-.374-1.157-.732-.056-.208-.062-.326-.027-.452.1-.41.59-.538.98-.42.248.083.485.275.63.583.666-.433.663-.43 1.13-.727-.17-.266-.262-.388-.373-.5-.4-.448-.948-.68-1.822-.662l-.456.06c-.437.11-.852.34-1.096.645-.732.83-.524 2.284.367 2.882.877.66 2.166.81 2.33 1.425.16.754-.554.998-1.264.91-.523-.107-.814-.373-1.13-.857l-1.174.678c.14.31.29.45.525.716 1.12 1.137 3.925 1.08 4.427-.64.02-.058.156-.453.047-1.06m-5.79-4.666h-1.446c0 1.25-.006 2.49-.006 3.738 0 .795.04 1.524-.088 1.747-.212.44-.76.385-1.01.3-.254-.125-.383-.303-.533-.554-.04-.07-.07-.127-.082-.13-.392.238-.783.48-1.175.72.195.4.483.748.852.975.55.33 1.292.432 2.066.255.505-.148.94-.452 1.168-.914.33-.607.26-1.342.256-2.155.007-1.325 0-2.65 0-3.98"/><path stroke="#0A374E" stroke-width="3" stroke-linecap="round" stroke-linejoin="round" fill="none" d="M148.593 166.538h1"/><path stroke="#0A374E" stroke-width="3" stroke-linecap="round" stroke-linejoin="round" stroke-dasharray="2.088,5.22" fill="none" d="M154.813 166.538h19.313"/><path stroke="#0A374E" stroke-width="3" stroke-linecap="round" stroke-linejoin="round" fill="none" d="M176.736 166.538h1"/><path stroke="#0A374E" stroke-width="5" stroke-linecap="round" stroke-linejoin="round" stroke-miterlimit="10" fill="none" d="M142.927 197.305h40.475"/><defs><path id="e" d="M0 158.054h66.648v39.75H0z"/></defs><clipPath id="f"><use xlink:href="#e" overflow="visible"/></clipPath><path clip-path="url(#f)" stroke="#0E374E" stroke-width="5" stroke-linecap="round" stroke-linejoin="round" stroke-miterlimit="10" d="M25.838 186.128v.723c0 3.076-2.492 5.566-5.566 5.566s-5.565-2.49-5.565-5.565v-4.148" fill="none"/><defs><path id="g" d="M6.757 175.544v4.77l36.57 11.13v-27.03z"/></defs><clipPath id="h"><use xlink:href="#g" overflow="visible"/></clipPath><linearGradient id="i" gradientUnits="userSpaceOnUse" x1="206.015" y1="153.599" x2="206.81" y2="153.599" gradientTransform="matrix(33 -33 -33 -33 -1715 12055.518)"><stop offset="0" stop-color="#009C79"/><stop offset=".455" stop-color="#009A79"/><stop offset=".683" stop-color="#009279"/><stop offset=".86" stop-color="#00857A"/><stop offset="1" stop-color="#00747B"/></linearGradient><path clip-path="url(#h)" fill="url(#i)" d="M-6.757 177.93l31.8-31.802 31.8 31.802-31.8 31.8z"/><path fill="#006955" d="M35.378 189.025l6.694-23.14 1.256 26.53z"/><path stroke="#0E374E" stroke-width="3" stroke-miterlimit="10" fill="none" d="M43.328 191.444l-36.57-11.13v-4.77l36.57-11.13z"/><path fill="#00C4CD" d="M46.906 196.612c-1.976 0-3.578-1.602-3.578-3.577v-30.212c0-1.975 1.602-3.577 3.578-3.577 1.975 0 3.577 1.603 3.577 3.577v30.212c0 1.976-1.602 3.577-3.577 3.577"/><path fill="#007E85" d="M46.906 196.064l2.384-33.37v33.007z"/><path stroke="#0E374E" stroke-width="3" stroke-miterlimit="10" d="M46.906 196.612c-1.976 0-3.578-1.602-3.578-3.577v-30.212c0-1.975 1.602-3.577 3.578-3.577 1.975 0 3.577 1.603 3.577 3.577v30.212c0 1.976-1.602 3.577-3.577 3.577z" fill="none"/><path fill="#43D0BB" d="M3.975 184.686c-1.538 0-2.783-1.245-2.783-2.783v-7.948c0-1.54 1.245-2.783 2.783-2.783 1.537 0 2.782 1.244 2.782 2.783v7.948c0 1.538-1.245 2.783-2.782 2.783"/><path stroke="#0E374E" stroke-width="3" stroke-miterlimit="10" d="M3.975 184.686c-1.538 0-2.783-1.245-2.783-2.783v-7.948c0-1.54 1.245-2.783 2.783-2.783 1.537 0 2.782 1.244 2.782 2.783v7.948c0 1.538-1.245 2.783-2.782 2.783z" fill="none"/><path stroke="#0E374E" stroke-width="3" stroke-linecap="round" stroke-linejoin="round" stroke-miterlimit="10" fill="none" d="M57.507 177.93h7.95M57.506 171.568l5.633-5.632M57.507 184.29l5.632 5.632"/><defs><path id="j" d="M210.166 150.986h43.226V205h-43.226z"/></defs><clipPath id="k"><use xlink:href="#j" overflow="visible"/></clipPath><path clip-path="url(#k)" fill="#59C2B4" d="M217.666 177.502v-5c0-1.655 1.342-3 3-3h22c1.656 0 3 1.345 3 3v5"/><path clip-path="url(#k)" stroke="#0A374E" stroke-width="3" stroke-miterlimit="10" d="M217.666 177.502v-5c0-1.655 1.342-3 3-3h22c1.656 0 3 1.345 3 3v5" fill="none"/><path clip-path="url(#k)" stroke="#0A374E" stroke-width="5" stroke-linecap="round" stroke-linejoin="round" stroke-miterlimit="10" fill="none" d="M217.666 200.5v2M245.666 200.5v2"/><path clip-path="url(#k)" stroke="#fff" stroke-width="3" stroke-linecap="round" stroke-linejoin="round" stroke-miterlimit="10" fill="none" d="M212.2 156.744h6.92l-6.92 6.92h6.92M229.36 152.486h4.612l-4.613 4.614h4.612M242.666 153.977h9.227l-9.227 9.227h9.227"/><defs><path id="l" d="M241.666 177.502h-24l-6 16h40l-6-16z"/></defs><clipPath id="m"><use xlink:href="#l" overflow="visible"/></clipPath><linearGradient id="n" gradientUnits="userSpaceOnUse" x1="228.548" y1="152.401" x2="229.548" y2="152.401" gradientTransform="matrix(25 -25 -25 -25 -1685.978 9723.13)"><stop offset="0" stop-color="#009C7A"/><stop offset=".459" stop-color="#009A7A"/><stop offset=".685" stop-color="#01927A"/><stop offset=".861" stop-color="#03857B"/><stop offset="1" stop-color="#06747B"/></linearGradient><path clip-path="url(#m)" fill="url(#n)" d="M203.666 185.502l28-28 28 28-28 28z"/><defs><path id="o" d="M210.166 150.986h43.226V205h-43.226z"/></defs><clipPath id="p"><use xlink:href="#o" overflow="visible"/></clipPath><path clip-path="url(#p)" stroke="#0A374E" stroke-width="3" stroke-linecap="round" stroke-linejoin="round" stroke-miterlimit="10" fill="none" d="M241.666 177.502h4l6 16h-40l6-16h4"/><defs><path id="q" d="M211.666 193.502v4c0 1.656 1.342 3 3 3h34c1.656 0 3-1.343 3-3v-4h-40z"/></defs><clipPath id="r"><use xlink:href="#q" overflow="visible"/></clipPath><linearGradient id="s" gradientUnits="userSpaceOnUse" x1="228.396" y1="152.253" x2="229.396" y2="152.253" gradientTransform="matrix(22.621 -22.621 -22.621 -22.621 -1501.657 8818.693)"><stop offset="0" stop-color="#009C7A"/><stop offset=".459" stop-color="#009A7A"/><stop offset=".685" stop-color="#01927A"/><stop offset=".861" stop-color="#03857B"/><stop offset="1" stop-color="#06747B"/></linearGradient><path clip-path="url(#r)" fill="url(#s)" d="M208.166 197.002l23.5-23.5 23.5 23.5-23.5 23.5z"/><defs><path id="t" d="M210.166 150.986h43.226V205h-43.226z"/></defs><clipPath id="u"><use xlink:href="#t" overflow="visible"/></clipPath><path clip-path="url(#u)" stroke="#0A374E" stroke-width="3" stroke-linecap="round" stroke-linejoin="round" stroke-miterlimit="10" d="M251.666 197.502c0 1.657-1.345 3-3 3h-34c-1.66 0-3-1.344-3-3v-4h40v4zM214.666 185.502h34" fill="none"/><path clip-path="url(#u)" fill="#FFCB06" d="M242.666 181.502h-22l2-6h18z"/><path clip-path="url(#u)" stroke="#0A374E" stroke-width="2" stroke-linecap="round" stroke-linejoin="round" stroke-miterlimit="10" fill="none" d="M242.666 181.502h-22l2-6h18z"/><path clip-path="url(#u)" fill="#006A56" d="M250.166 194.835v2l-36.876-2z"/><defs><path id="v" d="M350.044 151.124h44.9V204.5h-44.9z"/></defs><clipPath id="w"><use xlink:href="#v" overflow="visible"/></clipPath><g clip-path="url(#w)"><defs><path id="x" d="M350.044 151.124h44.9V204.5h-44.9z"/></defs><clipPath id="y"><use xlink:href="#x" overflow="visible"/></clipPath><path clip-path="url(#y)" fill="#FFCC03" d="M380.06 195.35c-1.804 0-3.27-1.464-3.27-3.266v-15.512c0-1.8 1.466-3.265 3.27-3.265h7.484c3.33 0 6.037 2.707 6.037 6.035v9.97c0 3.33-2.706 6.036-6.036 6.036h-7.485zm6.99-15.51h-3.725v8.978h3.724v-8.978z"/><path clip-path="url(#y)" fill="#0A374E" d="M387.545 174.67c2.577 0 4.674 2.096 4.674 4.673v9.97c0 2.58-2.098 4.674-4.675 4.674h-7.486c-1.052 0-1.904-.85-1.904-1.902v-15.512c0-1.05.852-1.902 1.903-1.902h7.485m-5.584 15.51h5.585c.48 0 .866-.388.866-.866v-9.97c0-.478-.386-.866-.865-.866h-5.584v11.703m5.585-18.237h-7.486c-2.555 0-4.632 2.076-4.632 4.63v15.51c0 2.554 2.077 4.63 4.63 4.63h7.487c4.08 0 7.4-3.318 7.4-7.4v-9.97c0-4.08-3.32-7.4-7.4-7.4m-2.857 9.26h.997v6.25h-.997v-6.25z"/><path clip-path="url(#y)" fill="#FFCC03" d="M378.035 203.137h-18.112c-2.778 0-5.03-2.25-5.03-5.03V168.6h28.174v29.506c0 2.78-2.255 5.03-5.032 5.03"/><path clip-path="url(#y)" stroke="#0A374E" stroke-width="3" stroke-linecap="round" stroke-linejoin="round" stroke-miterlimit="10" d="M378.035 203.137h-18.112c-2.778 0-5.03-2.25-5.03-5.03V168.6h28.174v29.506c0 2.78-2.255 5.03-5.032 5.03z" fill="none"/><path clip-path="url(#y)" stroke="#FFE292" stroke-width="5" stroke-linecap="round" stroke-linejoin="round" stroke-miterlimit="10" fill="none" d="M361.1 169.623v18.82M368.98 169.623v18.82M376.854 169.623v18.82"/><g opacity=".2" clip-path="url(#y)"><defs><path id="z" d="M355.765 170.125h27.3v4.754h-27.3z"/></defs><clipPath id="A"><use xlink:href="#z" overflow="visible"/></clipPath><path clip-path="url(#A)" fill="#4C3F17" d="M355.765 174.88l27.3-4.755h-27.3z"/></g><g opacity=".2" clip-path="url(#y)"><defs><path id="B" d="M384.4 172.683h1.695v6.446H384.4z"/></defs><clipPath id="C"><use xlink:href="#B" overflow="visible"/></clipPath><path clip-path="url(#C)" fill="#4C3F17" d="M386.096 179.13l-1.697-6.447v6.446z"/></g><g opacity=".2" clip-path="url(#y)"><defs><path id="D" d="M384.4 188.914h1.695v6.45H384.4z"/></defs><clipPath id="E"><use xlink:href="#D" overflow="visible"/></clipPath><path clip-path="url(#E)" fill="#4C3F17" d="M386.096 195.364l-1.697-6.45v6.45z"/></g><path clip-path="url(#y)" stroke="#0A374E" stroke-width="4" stroke-linecap="round" stroke-linejoin="round" stroke-miterlimit="10" fill="none" d="M351.86 168.6h34.236"/><path clip-path="url(#y)" fill="#fff" d="M378.895 188.143c-1.585 0-2.87-1.287-2.87-2.87v-.67c0-.97.48-1.825 1.216-2.347-.735-.52-1.216-1.376-1.216-2.343v-.433c-.497.858-1.428 1.44-2.488 1.44-1.585 0-2.872-1.288-2.872-2.87v-9.904H354.82c-.753 0-1.364-.61-1.364-1.362v-2.865c0-3.276 2.665-5.94 5.94-5.94.193 0 .385.007.574.027.623-3.142 3.402-5.52 6.725-5.52 2.648 0 5.003 1.512 6.14 3.813.47-.102.95-.152 1.44-.152 2.895 0 5.447 1.813 6.427 4.488 2.316 1.144 3.83 3.532 3.83 6.147 0 .75-.61 1.362-1.362 1.362h-1.405v11.767c0 .967-.48 1.822-1.217 2.343.735.52 1.217 1.378 1.217 2.346v.672c0 1.583-1.29 2.87-2.87 2.87"/><path clip-path="url(#y)" fill="#0A374E" d="M366.695 153.85c2.568 0 4.72 1.767 5.32 4.152.69-.313 1.452-.49 2.26-.49 2.56 0 4.706 1.756 5.313 4.128 2.09.775 3.582 2.783 3.582 5.143h-2.77v12.962h-.016c.006.058.016.11.016.17 0 .83-.674 1.507-1.508 1.507-.83 0-1.506-.676-1.506-1.508 0-.06.01-.11.016-.17h-.016v-3.85l-.017-.524c-.083-.566-.567-1.006-1.158-1.006-.59 0-1.073.44-1.155 1.006l-.017.525v2.093h-.006c0 .023.006.04.006.064 0 .83-.675 1.506-1.506 1.506-.834 0-1.51-.675-1.51-1.506 0-.023.007-.04.007-.064h-.006v-11.204H354.818v-2.864c0-2.528 2.05-4.576 4.578-4.576.648 0 1.266.14 1.825.382-.008-.125-.02-.254-.02-.382.003-3.034 2.462-5.494 5.495-5.494m12.198 29.246c.834 0 1.508.675 1.508 1.506v.67c0 .833-.673 1.508-1.507 1.508-.83 0-1.506-.675-1.506-1.507v-.67c0-.833.674-1.507 1.506-1.507m-12.198-31.972c-3.582 0-6.635 2.304-7.758 5.507-3.815.237-6.845 3.415-6.845 7.288v2.864c0 1.508 1.222 2.727 2.726 2.727H369.3v8.538c0 2.335 1.9 4.234 4.235 4.234.583 0 1.14-.12 1.647-.334.057.104.12.21.186.31-.448.67-.71 1.478-.71 2.343v.672c0 2.335 1.9 4.234 4.233 4.234 2.337 0 4.235-1.9 4.235-4.234v-.67c0-.866-.262-1.674-.71-2.345.448-.673.71-1.48.71-2.345v-10.404h.043c1.506 0 2.726-1.22 2.726-2.727 0-2.95-1.606-5.66-4.114-7.11-1.297-2.934-4.218-4.887-7.507-4.887-.243 0-.482.01-.723.033-1.486-2.258-4.03-3.692-6.855-3.692"/></g><path stroke="#FFCC03" stroke-width="2" stroke-linecap="round" stroke-linejoin="round" stroke-miterlimit="10" d="M114.083 122.166c-1.657 0-3-1.343-3-3 0-1.656 1.343-3 3-3v-4.5h-23v4.5c1.656 0 3 1.344 3 3 0 1.657-1.344 3-3 3v4.5h23v-4.5z" fill="none"/><path fill="#FFCC03" d="M108.583 113.498h1v1h-1zM108.583 115.498h1v1h-1zM108.583 117.498h1v1h-1zM108.583 119.498h1v1h-1zM108.583 121.498h1v1h-1zM108.583 123.498h1v1h-1zM108.583 125.498h1v1h-1z"/><path stroke="#FFCC03" stroke-width="2" stroke-linecap="round" stroke-linejoin="round" stroke-miterlimit="10" fill="none" d="M97.083 114.666h9v9h-9zM100.083 117.666h3M100.083 120.666h3"/><path stroke="#0E374E" stroke-width="2" stroke-linecap="round" stroke-linejoin="round" stroke-miterlimit="10" fill="none" d="M136 106l2 7h8l-6 5 3 8-7-5-7 5 3-8-6-5h8z"/><path stroke="#F0CB4D" stroke-width="2" stroke-linecap="round" stroke-linejoin="round" stroke-miterlimit="10" fill="none" d="M181.767 111.67l-21.59 8.916 8.448 3.286zM181.767 111.67l-3.755 17.363-9.387-5.16zM168.625 123.872v7.508l3.285-5.633"/><path stroke="#0E374E" stroke-width="2" stroke-linecap="round" stroke-linejoin="round" stroke-miterlimit="10" fill="none" d="M69.916 121.888v-5.076l5.585 2.538zM39.954 111.62c-2.917 0-5.28 2.365-5.28 5.28 0 2.918 5.28 10.912 5.28 10.912s5.28-7.995 5.28-10.91c0-2.918-2.365-5.28-5.28-5.28zm0 7.392c-1.167 0-2.112-.945-2.112-2.112 0-1.165.945-2.112 2.112-2.112 1.166 0 2.112.946 2.112 2.112 0 1.167-.946 2.112-2.112 2.112zM18.845 112.092h-2.702v-1.097c0-.202-.173-.367-.386-.367H13.44c-.212 0-.385.165-.385.367v1.097H6.882v-1.097c0-.202-.173-.367-.387-.367H4.18c-.213 0-.387.165-.387.367v1.097h-2.7c-.214 0-.387.164-.387.365v3.292H19.23v-3.293c0-.202-.17-.365-.385-.365zM13.056 110.63h3.087v2.926h-3.087zM3.794 110.63H6.88v2.926H3.795zM.707 115.75v11.338c0 .203.173.366.386.366h17.753c.212 0 .386-.163.386-.366v-11.34H.707z"/><path fill="#0E374E" d="M13.392 119.746c.14.15.208.382.208.694v.096c0 .307-.07.546-.208.72-.14.17-.378.26-.717.26-.34 0-.578-.088-.717-.26-.14-.174-.21-.414-.21-.72v-.096c0-.287.07-.512.21-.675.14-.163.377-.245.717-.245.338 0 .578.075.717.226m-3.878 3.814H6.338v-.27c0-.25.053-.42.158-.52.105-.096.33-.21.674-.342l.84-.293c.433-.15.777-.336 1.038-.554.26-.22.39-.54.39-.963v-.344c0-.54-.176-.954-.525-1.238-.35-.286-.9-.428-1.65-.428-.73 0-1.262.142-1.596.428-.334.285-.52.754-.562 1.406l1.31.074c.03-.4.108-.665.232-.796.123-.132.33-.198.624-.198.304 0 .523.057.657.168.134.112.2.312.2.6v.168c0 .243-.065.412-.196.507-.13.095-.335.19-.612.288l-.833.294c-.55.2-.93.428-1.14.683-.21.256-.317.615-.317 1.078v1.22h4.486v-.965zm5.396-2.864c0-.682-.183-1.2-.547-1.556-.365-.355-.93-.533-1.696-.533-.745 0-1.306.15-1.68.457-.375.305-.563.76-.563 1.37v.16c0 .566.147.997.44 1.293.293.298.714.446 1.264.446.36 0 .645-.046.855-.14.21-.092.382-.216.517-.372h.1v.636c0 .444-.064.76-.193.946-.128.188-.347.282-.656.282-.28 0-.48-.05-.596-.146-.115-.098-.21-.3-.282-.607l-1.38.17c.12.525.344.906.68 1.143.333.235.827.354 1.48.354.77 0 1.34-.182 1.707-.545.366-.362.55-.892.55-1.588v-1.768zM124.073 95.007c-3.39 0-5.844-.737-7.367-2.26-1.473-1.52-2.014-3.73-1.572-6.776l1.375-9.625c.44-3.045 1.62-5.353 3.535-6.875 1.915-1.522 4.567-2.308 8.005-2.308 3.438 0 5.844.737 7.22 2.26 1.374 1.52 1.914 3.977 1.57 7.366l-5.843.344c.147-2.21 0-3.683-.49-4.42-.492-.737-1.573-1.13-3.144-1.13-1.62 0-2.8.393-3.585 1.18-.786.785-1.326 2.11-1.572 3.977l-1.228 8.642c-.246 1.817-.098 3.094.49 3.88.54.786 1.67 1.13 3.242 1.13s2.75-.344 3.438-1.08c.688-.737 1.277-2.16 1.768-4.322l5.746.344c-.638 3.39-1.866 5.795-3.634 7.268-1.915 1.67-4.517 2.405-7.955 2.405zM147.4 95.007c-2.947 0-5.157-.687-6.68-2.014-1.472-1.375-2.062-3.24-1.718-5.648l.786-5.5c.344-2.456 1.473-4.37 3.34-5.746 1.865-1.376 4.272-2.064 7.267-2.064 2.947 0 5.157.687 6.63 2.112 1.424 1.424 2.014 3.34 1.67 5.844l-.786 5.5c-.345 2.406-1.425 4.273-3.29 5.6-1.818 1.228-4.224 1.915-7.22 1.915zm.59-4.223c1.277 0 2.21-.295 2.897-.884.688-.59 1.08-1.522 1.277-2.8l.688-5.057c.196-1.326.05-2.26-.442-2.897-.49-.59-1.375-.933-2.652-.933-1.277 0-2.21.295-2.897.933-.687.59-1.08 1.572-1.276 2.848l-.688 4.96c-.196 1.326 0 2.308.49 2.897.492.59 1.327.934 2.604.934zM161.74 94.664l2.848-20.332h5.746l-.49 3.634h1.03c.688-1.228 1.67-2.21 2.898-2.897 1.228-.688 2.603-1.032 4.027-1.032 1.767 0 3.093.59 3.928 1.67.835 1.13 1.13 2.7.835 4.665l-2.014 14.29h-5.698l1.866-13.26c.147-.932 0-1.67-.393-2.16-.393-.49-.982-.737-1.817-.737-.786 0-1.62.246-2.505.687-.933.442-1.768 1.13-2.554 1.964l-1.916 13.554h-5.795v-.046zM189.832 101.44l3.24-22.884h-5.5l.59-4.224h5.5l.147-1.13c.294-2.014 1.325-3.634 3.044-4.862 1.72-1.18 3.88-1.817 6.384-1.817.933 0 1.866.05 2.8.196.932.146 1.767.343 2.553.637l-1.227 3.83c-.688-.245-1.375-.392-2.063-.49-.688-.098-1.375-.147-2.014-.147-1.03 0-1.866.246-2.554.687-.638.442-1.08 1.228-1.228 2.357l-.098.737h7.76l-.59 4.225h-7.76l-3.24 22.885h-5.744zM.95 100.842c-.503 0-.95-.447-.95-.95V.95C0 .447.447 0 .95 0h98.942c.503 0 .95.447.95.95v98.942c0 .503-.447.95-.95.95H.95z"/><path fill="#FFCC03" d="M91.79 76.316c-.725-4.525-3.686-8.324-12.402-11.844-3.017-1.397-6.425-2.402-7.43-4.693-.335-1.342-.39-2.068-.168-2.906.67-2.626 3.8-3.464 6.257-2.682 1.62.56 3.13 1.788 4.022 3.743 4.245-2.737 4.245-2.737 7.262-4.637-1.117-1.676-1.676-2.458-2.402-3.184-2.57-2.85-6.09-4.358-11.676-4.246-.95.112-1.955.28-2.905.39-2.794.727-5.476 2.18-7.04 4.135-4.693 5.307-3.352 14.637 2.346 18.436 5.587 4.19 13.855 5.195 14.917 9.105 1.006 4.805-3.52 6.37-8.1 5.81-3.353-.67-5.197-2.402-7.208-5.475-3.687 2.123-3.687 2.123-7.486 4.358.893 1.955 1.843 2.85 3.35 4.58 7.152 7.264 25.086 6.93 28.326-4.077.167-.39 1.005-2.904.335-6.814zM54.75 46.482h-9.273c0 7.99-.056 15.922-.056 23.91 0 5.085.28 9.778-.558 11.175-1.34 2.793-4.86 2.458-6.48 1.9-1.62-.783-2.46-1.956-3.41-3.52-.278-.448-.446-.84-.502-.84-2.514 1.51-5.028 3.074-7.542 4.582 1.23 2.57 3.073 4.804 5.475 6.256 3.52 2.123 8.268 2.737 13.24 1.62 3.24-.95 6.035-2.905 7.487-5.866 2.123-3.91 1.676-8.604 1.62-13.8V46.483z"/><path fill="#00B9E3" d="M0 26.09V1.006c0-.503.447-.95.95-.95h25.085L0 26.09z"/><path fill="#fff" d="M18.045.056L0 18.1V9.72L9.72.057z"/><path stroke="#0E374E" stroke-width="2" stroke-linecap="round" stroke-linejoin="round" stroke-miterlimit="10" fill="none" d="M61 111h23v17H61zM61 114h23M77 111v3M68 111v3M84 125H61M68 128v-3M77 128v-3"/><path fill="#806600" d="M20.95 241.213c0 .52-.36.94-.94.94H2.133c-.58 0-.94-.42-.94-.94V226.27c0-.52.36-.388.94-.388H20.01c.58 0 .94-.132.94.387v14.943z"/><path stroke="#0E374E" stroke-width="2" stroke-miterlimit="10" d="M20.95 241.213c0 .52-.36.94-.94.94H2.133c-.58 0-.94-.42-.94-.94V226.27c0-.52.36-.388.94-.388H20.01c.58 0 .94-.132.94.387v14.943z" fill="none"/><path fill="#FFCB00" d="M20.95 238.058c0 .52-.36.61-.94.61H2.133c-.58 0-.94-.09-.94-.61v-13.892c0-.52.36-.61.94-.61H20.01c.58 0 .94.09.94.61v13.892z"/><path stroke="#0E374E" stroke-width="2" stroke-miterlimit="10" d="M20.95 238.058c0 .52-.36.61-.94.61H2.133c-.58 0-.94-.09-.94-.61v-13.892c0-.52.36-.61.94-.61H20.01c.58 0 .94.09.94.61v13.892z" fill="none"/><ellipse fill="#806600" stroke="#0E374E" stroke-width="2" stroke-miterlimit="10" cx="11.107" cy="229.492" rx="5.611" ry="5.854"/><circle fill="#FFCB00" stroke="#0E374E" stroke-width="2" stroke-miterlimit="10" cx="11.107" cy="225.681" r="5.611"/><linearGradient id="F" gradientUnits="userSpaceOnUse" x1="84.881" y1="194.989" x2="121.643" y2="158.226"><stop offset="0" stop-color="#009B79"/><stop offset=".461" stop-color="#009979"/><stop offset=".69" stop-color="#00917A"/><stop offset=".867" stop-color="#01847A"/><stop offset="1" stop-color="#01747B"/></linearGradient><path fill="url(#F)" stroke="#0E374E" stroke-width="3" stroke-linecap="round" stroke-linejoin="round" stroke-miterlimit="10" d="M87.944 155.163h30.635v42.89H87.943z"/><path stroke="#0E374E" stroke-width="5" stroke-linecap="round" stroke-linejoin="round" stroke-miterlimit="10" fill="none" d="M85.902 161.29h4.085M85.902 167.417h4.085M85.902 173.544h4.085M85.902 179.67h4.085M85.902 185.798h4.085M85.902 191.925h4.085"/><path fill="#F04F30" stroke="#0E374E" stroke-width="3" stroke-linecap="round" stroke-linejoin="round" stroke-miterlimit="10" d="M118.58 159.247h4.397v8.17h-4.397z"/><path fill="#3BBCA7" stroke="#0E374E" stroke-width="3" stroke-linecap="round" stroke-linejoin="round" stroke-miterlimit="10" d="M118.58 167.417h4.397v8.17h-4.397z"/><path fill="#FFCB00" stroke="#0E374E" stroke-width="3" stroke-linecap="round" stroke-linejoin="round" stroke-miterlimit="10" d="M118.58 175.586h4.397v8.17h-4.397z"/><path fill="#008E9C" stroke="#0E374E" stroke-width="3" stroke-linecap="round" stroke-linejoin="round" stroke-miterlimit="10" d="M118.58 183.756h4.397v8.17h-4.397z"/><path opacity=".2" fill="#4C3F17" d="M121.388 190.838l-1.64-32.095v32.095z"/><path fill="#FFCA07" d="M98.84 175.33c-.883 0-1.602-.72-1.602-1.604V162.84c0-.883.72-1.603 1.603-1.603h10.886c.884 0 1.604.72 1.604 1.604v10.886c0 .884-.72 1.604-1.604 1.604H98.84z"/><path fill="#0E374E" d="M109.726 162.74c.057 0 .103.045.103.102v10.884c0 .057-.047.103-.104.103H98.84c-.056 0-.102-.047-.102-.104v-10.884c0-.057.046-.103.103-.103h10.886m0-3H98.84c-1.71 0-3.102 1.39-3.102 3.102v10.884c0 1.71 1.392 3.103 3.103 3.103h10.885c1.71 0 3.103-1.393 3.103-3.104v-10.884c0-1.71-1.39-3.103-3.102-3.103zM108.835 171.13c-.08-.496-.404-.913-1.363-1.302-.333-.153-.705-.263-.815-.515-.04-.147-.044-.23-.02-.32.07-.288.416-.378.69-.295.175.06.34.195.442.41.47-.303.468-.3.796-.51-.12-.186-.184-.272-.263-.352-.282-.316-.667-.478-1.283-.466-.107.013-.214.028-.32.04-.308.08-.6.24-.773.456-.515.585-.368 1.608.26 2.03.617.463 1.524.568 1.64 1.002.113.53-.39.703-.89.64-.368-.076-.573-.263-.795-.603l-.827.477c.1.217.204.316.37.504.788.8 2.76.76 3.115-.45.016-.04.11-.318.035-.745zm-4.077-3.285h-1.018c0 .88-.004 1.753-.004 2.632 0 .56.03 1.073-.062 1.23-.15.31-.535.27-.71.21-.18-.087-.27-.212-.377-.39-.03-.05-.05-.09-.058-.092l-.83.507c.14.282.34.528.6.687.39.232.91.303 1.456.178.355-.103.66-.318.822-.644.232-.427.182-.945.18-1.517.005-.933 0-1.866 0-2.802z"/></g></svg>